<svg width="382" height="368" viewBox="0 0 382 368" fill="none" xmlns="http://www.w3.org/2000/svg">
<path d="M191.452 78C181.682 78 172.132 81.2833 164.008 87.4348C155.885 93.5863 149.554 102.33 145.815 112.559C142.077 122.789 141.098 134.045 143.004 144.904C144.91 155.764 149.615 165.739 156.523 173.569C163.431 181.398 172.233 186.73 181.815 188.89C191.397 191.05 201.329 189.941 210.355 185.704C219.381 181.467 227.096 174.291 232.523 165.085C237.951 155.879 240.848 145.055 240.848 133.983C240.848 119.135 235.644 104.896 226.38 94.397C217.117 83.8982 204.553 78 191.452 78Z" fill="#EE6F2D"/>
<path d="M92 290.076C92 263.756 92 250.597 96.0573 240.132C102.154 224.407 114.586 211.974 130.311 205.878C140.776 201.821 153.936 201.821 180.255 201.821H202.648C228.968 201.821 242.127 201.821 252.592 205.878C268.317 211.974 280.75 224.407 286.846 240.132C290.903 250.597 290.903 263.756 290.903 290.076V290.076H92V290.076Z" fill="#EE6F2D"/>
</svg>
